<svg xmlns="http://www.w3.org/2000/svg" xml:space="preserve" style="fill-rule:evenodd;clip-rule:evenodd" viewBox="0 0 354 348"><path d="M1.627 16.139h362.582v362.545H1.627z" style="fill:none" transform="matrix(.97572 0 0 .95977 -1.588 -15.49)"/><path d="M463.31 426.89q-8.18 5.88-14.74 13.18a.97.97 0 0 1-1.42.03l-4.65-4.72m-14.55 13.91-.12 65.29a.71.71 0 0 0 .43.66q10.11 4.48 13.92 13.21c5.04 11.54 2.13 24.83-8.33 32.38-22.68 16.34-51.29-7.14-40.11-32.5q3.69-8.39 12.75-12.78a.9.9 0 0 0 .5-.8l.04-48.06" style="fill:none;fill-rule:nonzero;stroke:#859bae;stroke-width:2px" transform="translate(-239.78 -302.562)"/><path d="M407.03 466.69q-6.45 5.22-11.89 10.92-8.53 8.93-8.59 8.99a82971 82971 0 0 1-35.27 34.93q-19.76 19.56-29.49 29.51-3.75 3.82-6.66 5.76" style="fill:none;fill-rule:nonzero;stroke:#7b3a45;stroke-width:2px" transform="translate(-239.78 -302.562)"/><path d="M358.2 352.41s12.719-12.706 15.101-15.174a.81.81 0 0 0 .229.734l36.43 35.39c.319.314.79.426 1.22.29 15.31-4.81 31.76 2.71 35.33 18.86q1.82 8.25-1.38 15.29a1.43 1.43 0 0 0 .3 1.61l17.88 17.48q-8.18 5.88-14.74 13.18a.97.97 0 0 1-1.42.03l-4.65-4.72-11.03-11.3a2.27 2.27 0 0 0-1.62-.68 2.29 2.29 0 0 0-2.27 2.27v.03l.37 23.59-.12 65.29a.71.71 0 0 0 .43.66q10.11 4.48 13.92 13.21c5.04 11.54 2.13 24.83-8.33 32.38-22.68 16.34-51.29-7.14-40.11-32.5q3.69-8.39 12.75-12.78a.9.9 0 0 0 .5-.8l.04-48.06-.05-45.19a.7.7 0 0 0-.29-.56q-16.27-11.6-11.27-31.58a1.41 1.41 0 0 0-.37-1.35l-35.58-35.58a.917.917 0 0 0-1.27-.02" style="fill:#fff" transform="translate(-239.78 -302.562)"/><path d="m502.13 381.18-44.004 40.749-12.696-12.519a1.43 1.43 0 0 1-.3-1.61q3.2-7.04 1.38-15.29c-3.57-16.15-20.02-23.67-35.33-18.86-.43.136-.901.024-1.22-.29l-36.43-35.39a.816.816 0 0 1-.03-1.13c3.767-4.067 20.49-20.78 27.3-27.04 6.45-5.94 14.56-8.83 22.84-4.39 3.55 1.9 6.58 5.33 10.31 8.9 8.4 8.047 68.18 66.87 68.18 66.87m-144.647-28.077c.357-.348.599-.582.717-.693m0 0a.917.917 0 0 1 1.27.02l35.58 35.58c.353.352.494.867.37 1.35q-5 19.98 11.27 31.58c.182.132.291.34.29.56l.05 45.19c-4.3 3.48-89.96 88.817-91.9 90.11-2.507-2.567-58.877-57.487-68.01-66.66q-3.2-3.21-5.01-8.46c-3.23-9.33 2.93-17.25 9.54-23.78 7.258-7.168 96.431-95.62 105.833-104.797" style="fill:#ec3d2d;fill-rule:nonzero" transform="translate(-239.78 -302.562)"/><path d="M502.105 381.162s82.908 81.415 84.755 83.508c4.67 5.3 6.88 13.42 3.9 20.09q-1.06 2.36-4.34 5.81-9.07 9.53-16.85 16.26c-.36.308-.65.69-.85 1.12-1.22 2.62-2.23 6.37-4.12 9.78q-14.37 25.97-42.69 35.76a2.5 2.5 0 0 0-1.12.78c-4.65 5.63-65.157 64.65-88.27 87.17q-6.83 6.66-9.77 7.56-5.7 1.74-11.43-.16-2.76-.92-7.62-5.59a7857 7857 0 0 1-88.57-86.45c1.94-1.293 91.9-90.11 91.9-90.11l-.04 48.06a.9.9 0 0 1-.5.8q-9.06 4.39-12.75 12.78c-11.18 25.36 17.43 48.84 40.11 32.5 10.46-7.55 13.37-20.84 8.33-32.38q-3.81-8.73-13.92-13.21a.71.71 0 0 1-.43-.66l.12-65.29c.853.067 74.155-68.128 74.155-68.128" style="fill:#0a365c;fill-rule:nonzero" transform="translate(-239.78 -302.562)"/><path d="M442.964 436.046c-4.673 4.233-14.161 13.311-15.014 13.244l-.37-23.59v-.03a2.29 2.29 0 0 1 2.27-2.27 2.27 2.27 0 0 1 1.62.68z" style="fill:#ec3d2d;fill-rule:nonzero" transform="translate(-239.78 -302.562)"/><path d="M501.74 427.2q10.42.01 18.46 2.7 17.07 5.7 28.52 19.9a.92.92 0 0 1-.19 1.33l-9.22 6.5a.743.743 0 0 1-1-.14c-9.15-11.38-22.01-17.65-36.58-17.65-14.57-.01-27.44 6.25-36.6 17.61a.743.743 0 0 1-1 .14l-9.21-6.51a.92.92 0 0 1-.19-1.33q11.47-14.19 28.54-19.87 8.04-2.68 18.47-2.68m59.08 58.8c-.12 11.35-3.64 22.55-9.61 32.01a.6.6 0 0 1-.87.15l-9.1-6.97a.9.9 0 0 1-.23-1.15c4.07-7.1 7.08-15.99 7.17-24.18s-2.71-17.14-6.63-24.33a.89.89 0 0 1 .26-1.15l9.25-6.76a.598.598 0 0 1 .87.17c5.75 9.59 9.02 20.87 8.89 32.21m-108.85-32.17a.44.44 0 0 1 .64-.11l9.37 7.18a.61.61 0 0 1 .16.79q-8.361 14.26-6.2 30.09c1.026 7.504 2.992 12.356 4.514 15.164q.257.47.492.864c.934 1.567 1.604 2.262 1.604 2.262a1.39 1.39 0 0 1-.41 1.82l-8.68 6.12-.016.011a.693.693 0 0 1-.95-.189l-.014-.022c-1.493-2.44-6.67-14.22-7.27-16.78q-2.44-10.43-2.45-15.3 0-1.12.57-7.1 1.28-13.55 8.64-24.8m49.5 5.35c15.23-.2 20.36 19.26 7.35 27.22a.95.95 0 0 0-.41 1.09l5.93 19.48a2.514 2.514 0 0 1-1.45 3.04c-2.7 1.09-7.43.91-10.74.95-3.3.05-8.02.36-10.75-.67a2.515 2.515 0 0 1-1.53-3l5.41-19.63a.95.95 0 0 0-.44-1.08c-13.21-7.61-8.6-27.2 6.63-27.4m25.9 64.43c4.226-2.575 11.325-9.774 11.439-9.794.58-.093 4.944 3.794 9.151 7.134a1.01 1.01 0 0 1 .06 1.53q-3.82 3.56-5.85 5.73c-7.89 8.41-23.008 15.481-38.67 15.88-2.931.075-6.513.207-10.82-.54-13.81-2.39-29.23-9.94-37.05-21.88a.757.757 0 0 1 .2-1.03l8.97-6.32a.56.56 0 0 1 .73.08c9.967 11.06 21.984 17.099 36.091 17.341 8.413.144 13.127-1.918 13.419-2.031 5.84-2.187 9.74-4.522 12.33-6.1" style="fill:#fff;fill-rule:nonzero" transform="translate(-239.78 -302.562)"/></svg>