<svg xmlns="http://www.w3.org/2000/svg" xml:space="preserve" style="fill-rule:evenodd;clip-rule:evenodd" viewBox="0 0 1035 402"><path d="M223.041 275.769h1024.29V665.79H223.041z" style="fill:none" transform="matrix(1.00976 0 0 1.02854 -225.217 -283.64)"/><path d="M463.31 426.89q-8.18 5.88-14.74 13.18a.97.97 0 0 1-1.42.03l-4.65-4.72m-14.55 13.91-.12 65.29a.71.71 0 0 0 .43.66q10.11 4.48 13.92 13.21c5.04 11.54 2.13 24.83-8.33 32.38-22.68 16.34-51.29-7.14-40.11-32.5q3.69-8.39 12.75-12.78a.9.9 0 0 0 .5-.8l.04-48.06" style="fill:none;fill-rule:nonzero;stroke:#859bae;stroke-width:2px" transform="translate(-237.936 -278.498)"/><path d="M407.03 466.69q-6.45 5.22-11.89 10.92-8.53 8.93-8.59 8.99a82971 82971 0 0 1-35.27 34.93q-19.76 19.56-29.49 29.51-3.75 3.82-6.66 5.76" style="fill:none;fill-rule:nonzero;stroke:#7b3a45;stroke-width:2px" transform="translate(-237.936 -278.498)"/><path d="M501.73 439.84c14.57 0 27.43 6.27 36.58 17.65a.74.74 0 0 0 1 .14l9.22-6.5a.92.92 0 0 0 .19-1.33q-11.45-14.2-28.52-19.9-8.04-2.69-18.46-2.7-10.43 0-18.47 2.68-17.07 5.68-28.54 19.87a.92.92 0 0 0 .19 1.33l9.21 6.51a.74.74 0 0 0 1-.14c9.16-11.36 22.03-17.62 36.6-17.61m46.45 46.02c-.09 8.19-3.1 17.08-7.17 24.18a.894.894 0 0 0 .23 1.15l9.1 6.97a.6.6 0 0 0 .87-.15c5.97-9.46 9.49-20.66 9.61-32.01.13-11.34-3.14-22.62-8.89-32.21a.6.6 0 0 0-.87-.17l-9.25 6.76a.89.89 0 0 0-.26 1.15c3.92 7.19 6.72 16.14 6.63 24.33m-96.21-32.03q-7.36 11.25-8.64 24.8-.57 5.98-.57 7.1.01 4.87 2.45 15.3.9 3.84 3.59 8.25c.186.305.327.632.42.97q1.02 3.9 3.26 7.56l.014.022a.69.69 0 0 0 .95.189l.016-.011 8.68-6.12a1.386 1.386 0 0 0 .41-1.82l-3.02-5.22a.79.79 0 0 0-1.36-.02q-2.04 3.29-5.72 5a2.01 2.01 0 0 1-2.75-1.18l-.34-.99a3.16 3.16 0 0 1 1.83-3.94q3.41-1.33 5.6-1.31h.009a.663.663 0 0 0 .651-.77q-1.08-6.69-1.51-9.86-2.16-15.83 6.2-30.09a.61.61 0 0 0-.16-.79l-9.37-7.18a.44.44 0 0 0-.64.11m50.18 57.13c3.31-.04 8.04.14 10.74-.95a2.504 2.504 0 0 0 1.45-3.04l-5.93-19.48a.95.95 0 0 1 .41-1.09c13.01-7.96 7.88-27.42-7.35-27.22s-19.84 19.79-6.63 27.4a.95.95 0 0 1 .44 1.08l-5.41 19.63a2.505 2.505 0 0 0 1.53 3c2.73 1.03 7.45.72 10.75.67m37.98 14.59c-2.15-1.35-3.16-2.95-5.34-6.01a.94.94 0 0 0-1.22-.26q-2.84 1.68-6.2 4.33-3.57 2.82-12.33 6.1a4 4 0 0 0-.82.43q-3.48 2.41-7.5 1.78-2.91-.45-5.08-.5-21.16-.43-36.11-17.02a.56.56 0 0 0-.73-.08l-8.97 6.32a.753.753 0 0 0-.2 1.03c7.82 11.94 23.24 19.49 37.05 21.88q6.46 1.12 10.82.54 5.58-.74 6.7-.84c11.23-1.07 24.08-6.63 31.97-15.04q2.03-2.17 5.85-5.73a1.01 1.01 0 0 0-.06-1.53q-6.31-5.01-7.1-5.53-1.5-.98-2.37-.84-.172.03-.331.094c-.958.383-1.384 1.603-.944 2.703q.074.185.175.353 2.26 3.74 3.19 7.49.01.037.01.076a.302.302 0 0 1-.46.254m439.63-39.12q-12.14.78-18.39 3.43c-6.5 2.74-11.43 8.9-7.97 15.92q2.03 4.12 7.6 5.02c7.02 1.15 14.7-3.45 19.39-8.2a.72.72 0 0 0 .22-.52v-14.862a.794.794 0 0 0-.79-.79l-.06.002" style="fill:none;fill-rule:nonzero;stroke:#859bae;stroke-width:2px" transform="translate(-237.936 -278.498)"/><path d="M358.2 352.41s12.719-12.706 15.101-15.174a.81.81 0 0 0 .229.734l36.43 35.39c.319.314.79.426 1.22.29 15.31-4.81 31.76 2.71 35.33 18.86q1.82 8.25-1.38 15.29a1.43 1.43 0 0 0 .3 1.61l17.88 17.48q-8.18 5.88-14.74 13.18a.97.97 0 0 1-1.42.03l-4.65-4.72-11.03-11.3a2.27 2.27 0 0 0-1.62-.68 2.28 2.28 0 0 0-2.27 2.27v.03l.37 23.59-.12 65.29a.71.71 0 0 0 .43.66q10.11 4.48 13.92 13.21c5.04 11.54 2.13 24.83-8.33 32.38-22.68 16.34-51.29-7.14-40.11-32.5q3.69-8.39 12.75-12.78a.9.9 0 0 0 .5-.8l.04-48.06-.05-45.19a.69.69 0 0 0-.29-.56q-16.27-11.6-11.27-31.58a1.41 1.41 0 0 0-.37-1.35l-35.58-35.58a.913.913 0 0 0-1.27-.02" style="fill:#fff" transform="translate(-237.936 -278.498)"/><path d="m502.13 381.18-44.004 40.749-12.696-12.519a1.43 1.43 0 0 1-.3-1.61q3.2-7.04 1.38-15.29c-3.57-16.15-20.02-23.67-35.33-18.86-.43.136-.901.024-1.22-.29l-36.43-35.39a.813.813 0 0 1-.03-1.13c3.767-4.067 20.49-20.78 27.3-27.04 6.45-5.94 14.56-8.83 22.84-4.39 3.55 1.9 6.58 5.33 10.31 8.9 8.4 8.047 68.18 66.87 68.18 66.87m-144.647-28.077c.357-.348.599-.582.717-.693m0 0a.913.913 0 0 1 1.27.02l35.58 35.58c.353.352.494.867.37 1.35q-5 19.98 11.27 31.58c.182.132.291.34.29.56l.05 45.19c-4.3 3.48-89.96 88.817-91.9 90.11-2.507-2.567-58.877-57.487-68.01-66.66q-3.2-3.21-5.01-8.46c-3.23-9.33 2.93-17.25 9.54-23.78 7.258-7.168 96.431-95.62 105.833-104.797m370.247 48.509c.015-8.519 7.403-15.517 16.367-15.501s16.328 7.039 16.313 15.558v.001c-.015 8.519-7.403 15.517-16.367 15.501s-16.328-7.039-16.313-15.558" style="fill:#ec3d2d;fill-rule:nonzero" transform="translate(-237.936 -278.498)"/><path d="M502.105 381.162s82.908 81.415 84.755 83.508c4.67 5.3 6.88 13.42 3.9 20.09q-1.06 2.36-4.34 5.81-9.07 9.53-16.85 16.26a3.3 3.3 0 0 0-.85 1.12c-1.22 2.62-2.23 6.37-4.12 9.78q-14.37 25.97-42.69 35.76a2.5 2.5 0 0 0-1.12.78c-4.65 5.63-65.157 64.65-88.27 87.17q-6.83 6.66-9.77 7.56-5.7 1.74-11.43-.16-2.76-.92-7.62-5.59a7864 7864 0 0 1-88.57-86.45c1.94-1.293 91.9-90.11 91.9-90.11l-.04 48.06a.9.9 0 0 1-.5.8q-9.06 4.39-12.75 12.78c-11.18 25.36 17.43 48.84 40.11 32.5 10.46-7.55 13.37-20.84 8.33-32.38q-3.81-8.73-13.92-13.21a.71.71 0 0 1-.43-.66l.12-65.29c.853.067 74.155-68.128 74.155-68.128m619.065 11.468h26.72c.22 0 .4.181.4.4-.01 46.06.01 82.927.05 110.6q0 2.25 1.71 4.25c1.83 2.15 5.16 1.82 7.8 1.49l.01-.001c.32-.037.62.197.66.519v.012l1.66 16.67a.69.69 0 0 1-.38.68c-12.28 5.99-32.57 5.65-37.78-9.8-.91-2.68-1.37-5.16-1.39-7.44q-.225-30.1-.18-116.66c0-.395.33-.72.72-.72" style="fill:#0a365c;fill-rule:nonzero" transform="translate(-237.936 -278.498)"/><path d="M779.44 454.86a.804.804 0 0 0-.8-.77h-12.57a.854.854 0 0 1-.85-.85v-19.35c0-.406.334-.74.74-.74h12.62c.73 0 1.33-.6 1.33-1.33v-20.96a.9.9 0 0 1 .75-.89l25.53-4.27q.06-.01.12-.01c.406 0 .74.334.74.74v25.47c0 .499.415.91.92.91h21.09c.406 0 .74.339.74.75v19.7c0 .455-.375.83-.83.83h-21.395a.56.56 0 0 0-.545.565v.005q.36 23.32 0 39.8-.13 6.07 1 8.39c3.66 7.52 12.86 5.99 18.86 2.79a.91.91 0 0 1 1.27.48l6.66 17.34a.517.517 0 0 1-.24.65q-9.88 5.13-20.8 6.17c-13.92 1.32-28.26-3.55-32.86-17.53q-1.56-4.75-1.51-14.68.19-38.39.03-43.21" style="fill:#ec3d2d;fill-rule:nonzero" transform="translate(-237.936 -278.498)"/><path d="M1158.29 433.18h12.63c.4 0 .73-.33.73-.73v-21.66a.72.72 0 0 1 .6-.7l26.08-4.36a.643.643 0 0 1 .74.63v25.95c0 .318.26.58.58.58h21.78c.43 0 .78.352.78.78v19.95c0 .324-.27.59-.59.59h-22.06c-.29 0-.53.239-.53.53.15 17.42.13 30.29-.04 38.61q-.165 8.08 1.26 10.55c3.5 6.06 12.56 5.25 17.85 1.86.22-.142.48-.217.74-.217.59 0 1.12.378 1.31.937l5.7 16.65c.15.44-.04.928-.45 1.15-16.42 8.91-45.38 11.05-52.65-11.49q-1.515-4.66-1.35-18.71c.07-5.673.07-18.757.01-39.25a.65.65 0 0 0-.65-.65h-12.68a.485.485 0 0 1-.48-.48v-19.83c0-.379.31-.69.69-.69" style="fill:#0a365c;fill-rule:nonzero" transform="translate(-237.936 -278.498)"/><path d="M442.964 436.046c-4.673 4.233-14.161 13.311-15.014 13.244l-.37-23.59v-.03a2.28 2.28 0 0 1 2.27-2.27 2.27 2.27 0 0 1 1.62.68zM703.54 453.24q5.43 12.04.74 23.91c-6.07 15.35-25.01 20.23-39.54 19.82q-4.29-.12-7.35-1.32c-1.78-.69-3.28-.02-4.1 1.43-4.15 7.34 2.33 11.29 8.73 11.12q2.94-.07 22.49-.03 4.19.01 12.25 1.54c10.5 1.99 19.73 8.23 21.41 19.27q3.05 20.08-14.26 31.36c-10.14 6.61-22.52 8.94-35.07 9.51q-15.23.69-30.47-3.95c-16.11-4.91-24.53-23.77-9.5-35.72q3.33-2.65 7.59-5.03a.39.39 0 0 0 .04-.65c-4.27-3.09-7.45-7.19-8.16-12.77-1.23-9.64 4.75-14.9 11.81-20.52a.64.64 0 0 0-.06-1.04c-7.33-4.65-12.93-10.49-14.49-19.69q-3.36-19.83 11.4-31.98 6.07-5 16.23-7.26 12.22-2.72 27.98 1.5.4.11.81.11l35.47-.16h.01c.691 0 1.26.569 1.26 1.26v18.11c0 .318-.262.58-.58.58h-14.26a.4.4 0 0 0-.087.009.43.43 0 0 0-.293.591m-23.127 7.685c-.147-6.995-5.941-12.669-12.938-12.669l-.271.003-2.379.049c-6.995.147-12.669 5.941-12.669 12.937q0 .136.003.272l.109 5.198c.146 6.995 5.94 12.669 12.937 12.669l.271-.002 2.379-.05c6.995-.147 12.669-5.941 12.669-12.937q0-.136-.003-.272zM651.1 530.08c-3.42 2.82-6.44 7.39-5.34 11.86q1.6 6.45 8.57 8.14 14.27 3.48 29.32-1.7 4.49-1.55 6.58-4.28c4.13-5.39 1.71-11.31-4.58-13.07q-4.44-1.23-6.9-1.16-11.49.36-21.72.24c-1.45-.02-3.54-.67-4.95-.46-.36.053-.699.201-.98.43" style="fill:#ec3d2d;fill-rule:nonzero" transform="translate(-237.936 -278.498)"/><path d="M1007.79 528.2h-22.96a.7.7 0 0 1-.69-.58l-1.36-8.18a.843.843 0 0 0-1.38-.49q-5.38 4.67-10.35 7.28c-22.82 11.98-53.09-2.77-44.52-31.75 3.46-11.72 17.36-18.61 28.19-21.24q12.32-2.99 24.66-3.45a.983.983 0 0 0 .93-.92c.23-4.37-.55-8.99-3.45-12.1-3.64-3.9-11.87-4.45-16.91-3.78q-10.74 1.45-20.61 7.13a.43.43 0 0 1-.59-.16l-9.44-16.33a.984.984 0 0 1 .35-1.32q20.36-12.14 43.29-11.61 9.37.22 17.52 3.79c10.37 4.54 15.06 13.76 16.59 24.68.17 1.18.23 5.913.19 14.2-.09 15.92-.02 30.547.19 43.88q.09 5.79.9 10.3c.01.03.01.06.01.09 0 .306-.25.559-.56.56m-28.03-41.77q-12.14.78-18.39 3.43c-6.5 2.74-11.43 8.9-7.97 15.92q2.03 4.12 7.6 5.02c7.02 1.15 14.7-3.45 19.39-8.2a.72.72 0 0 0 .22-.52v-14.862a.794.794 0 0 0-.79-.79z" style="fill:#0a365c;fill-rule:nonzero" transform="translate(-237.936 -277.498)"/><path d="M758.122 527.186a.854.854 0 0 1-.849.85l-26.2.046h-.001a.854.854 0 0 1-.85-.849l-.164-93.68v-.001c0-.466.383-.849.849-.85l26.2-.046h.001c.466 0 .849.383.85.849z" style="fill:#ec3d2d;fill-rule:nonzero" transform="translate(-237.936 -278.498)"/><path d="M834.03 432.74h28.01c.354 0 .668.237.77.58q11.21 38.4 19.16 71.04a.38.38 0 0 0 .58.22q.33-.23.37-.45c4.79-24.3 11.26-47.21 17.99-70.88a.68.68 0 0 1 .65-.49h25.756a.502.502 0 0 1 .474.66l-31.18 94.32a.58.58 0 0 1-.55.4H866.5a.76.76 0 0 1-.72-.51l-32.23-94.22a.513.513 0 0 1 .48-.67m248.19 95.44a.71.71 0 0 1-.7-.64l-1.01-10.17a.6.6 0 0 0-.05-.193.563.563 0 0 0-.91-.127c-8.52 9.02-21.26 14.94-33.97 13.34-9.57-1.207-16.47-5.62-20.68-13.24-3.58-6.49-4.1-14.03-4.13-22.41q-.105-37.83-.15-61.32c0-.181.15-.33.33-.33h26.95c.34 0 .62.274.62.61.03.773.04 20.457.05 59.05 0 5.8 1.58 12.9 8.32 14.28 9.03 1.84 15.55-2.68 21.54-8.6.21-.204.33-.482.33-.77v-64.23c0-.214.18-.39.39-.39h26.37c.51 0 .93.42.93.93v93.45a.76.76 0 0 1-.75.76z" style="fill:#0a365c;fill-rule:nonzero" transform="translate(-237.936 -278.498)"/><path d="M501.74 427.2q10.42.01 18.46 2.7 17.07 5.7 28.52 19.9a.92.92 0 0 1-.19 1.33l-9.22 6.5a.74.74 0 0 1-1-.14c-9.15-11.38-22.01-17.65-36.58-17.65-14.57-.01-27.44 6.25-36.6 17.61a.74.74 0 0 1-1 .14l-9.21-6.51a.92.92 0 0 1-.19-1.33q11.47-14.19 28.54-19.87 8.04-2.68 18.47-2.68m59.08 58.8c-.12 11.35-3.64 22.55-9.61 32.01a.6.6 0 0 1-.87.15l-9.1-6.97a.894.894 0 0 1-.23-1.15c4.07-7.1 7.08-15.99 7.17-24.18s-2.71-17.14-6.63-24.33a.89.89 0 0 1 .26-1.15l9.25-6.76a.597.597 0 0 1 .87.17c5.75 9.59 9.02 20.87 8.89 32.21m-108.85-32.17a.44.44 0 0 1 .64-.11l9.37 7.18a.61.61 0 0 1 .16.79q-8.361 14.26-6.2 30.09c1.026 7.504 2.992 12.356 4.514 15.164q.256.47.492.864c.934 1.567 1.604 2.262 1.604 2.262a1.386 1.386 0 0 1-.41 1.82l-8.68 6.12-.016.011a.69.69 0 0 1-.95-.189l-.014-.022c-1.493-2.44-6.67-14.22-7.27-16.78q-2.44-10.43-2.45-15.3 0-1.12.57-7.1 1.28-13.55 8.64-24.8m49.5 5.35c15.23-.2 20.36 19.26 7.35 27.22a.95.95 0 0 0-.41 1.09l5.93 19.48a2.504 2.504 0 0 1-1.45 3.04c-2.7 1.09-7.43.91-10.74.95-3.3.05-8.02.36-10.75-.67a2.505 2.505 0 0 1-1.53-3l5.41-19.63a.95.95 0 0 0-.44-1.08c-13.21-7.61-8.6-27.2 6.63-27.4m25.9 64.43c4.226-2.575 11.325-9.774 11.439-9.794.58-.093 4.944 3.794 9.151 7.134a1.01 1.01 0 0 1 .06 1.53q-3.82 3.56-5.85 5.73c-7.89 8.41-23.008 15.481-38.67 15.88-2.931.075-6.513.207-10.82-.54-13.81-2.39-29.23-9.94-37.05-21.88a.753.753 0 0 1 .2-1.03l8.97-6.32a.56.56 0 0 1 .73.08c9.967 11.06 21.984 17.099 36.091 17.341 8.413.144 13.127-1.918 13.419-2.031 5.84-2.187 9.74-4.522 12.33-6.1" style="fill:#fff;fill-rule:nonzero" transform="translate(-237.936 -278.498)"/></svg>